<svg width="465" height="600" viewBox="0 0 465 600" fill="none" xmlns="http://www.w3.org/2000/svg">
<g opacity="0.33">
<g opacity="0.5">
<path opacity="0.5" fill-rule="evenodd" clip-rule="evenodd" d="M404.551 200.241L351.675 68.5201C335.014 27.1421 294.887 0 250.302 0H121.788L202.198 200.241H404.551Z" fill="url(#paint0_linear)"/>
<path opacity="0.5" fill-rule="evenodd" clip-rule="evenodd" d="M154.248 400.484H282.763L202.353 200.242H0L52.8763 331.963C69.537 373.341 109.585 400.484 154.248 400.484Z" fill="url(#paint1_linear)"/>
<path opacity="0.5" fill-rule="evenodd" clip-rule="evenodd" d="M282.763 399.467L335.639 531.188C352.3 572.566 392.348 599.708 436.933 599.708H522.974C535.959 599.708 546.44 589.227 546.44 576.242C546.44 573.818 546.049 571.315 545.267 568.968L512.493 467.987C495.832 426.609 455.784 399.467 411.199 399.467H282.763Z" fill="url(#paint2_linear)"/>
<path opacity="0.8" fill-rule="evenodd" clip-rule="evenodd" d="M654.696 531.266L868 0H739.72C695.213 0 655.165 27.0639 638.583 68.4419L425.2 599.707H553.48C598.065 599.707 638.035 572.644 654.696 531.266Z" fill="url(#paint3_linear)"/>
</g>
</g>
<defs>
<linearGradient id="paint0_linear" x1="116.294" y1="57.7258" x2="352.016" y2="224.622" gradientUnits="userSpaceOnUse">
<stop stop-color="#4E62B7"/>
<stop offset="1" stop-color="white" stop-opacity="0"/>
</linearGradient>
<linearGradient id="paint1_linear" x1="5.49706" y1="242.389" x2="241.231" y2="409.261" gradientUnits="userSpaceOnUse">
<stop stop-color="#4E62B7"/>
<stop offset="1" stop-color="white"/>
</linearGradient>
<linearGradient id="paint2_linear" x1="279.376" y1="451.416" x2="442.227" y2="545.424" gradientUnits="userSpaceOnUse">
<stop stop-color="#4E62B7"/>
<stop offset="1" stop-color="white" stop-opacity="0"/>
</linearGradient>
<linearGradient id="paint3_linear" x1="525.88" y1="-0.0517135" x2="897.673" y2="503.388" gradientUnits="userSpaceOnUse">
<stop stop-color="#4E62B7"/>
<stop offset="1" stop-color="white" stop-opacity="0"/>
</linearGradient>
</defs>
</svg>
