<?xml version="1.0" standalone="no"?>
<!DOCTYPE svg PUBLIC "-//W3C//DTD SVG 20010904//EN"
 "http://www.w3.org/TR/2001/REC-SVG-20010904/DTD/svg10.dtd">
<svg version="1.0" xmlns="http://www.w3.org/2000/svg"
 width="260.000000pt" height="260.000000pt" viewBox="0 0 260.000000 260.000000"
 preserveAspectRatio="xMidYMid meet">
<metadata>
Created by potrace 1.11, written by Peter Selinger 2001-2013
</metadata>
<g transform="translate(0.000000,260.000000) scale(0.100000,-0.100000)"
fill="#000000" stroke="none">
<path d="M405 2160 c-2 -3 46 -126 106 -275 60 -148 111 -277 114 -285 4 -13
-31 -15 -283 -15 -247 0 -287 -3 -285 -15 3 -37 159 -399 187 -437 35 -46 102
-94 159 -113 26 -8 109 -12 248 -12 182 -1 211 -3 218 -17 5 -9 43 -100 84
-203 42 -102 86 -201 98 -220 33 -49 82 -88 147 -114 55 -23 65 -24 297 -21
240 2 240 2 290 29 60 33 103 72 132 119 12 19 110 255 218 524 109 270 202
501 208 515 5 14 11 30 13 35 2 9 52 130 74 180 37 83 128 321 124 324 -3 3
-98 4 -212 4 -250 -1 -293 -13 -377 -97 -48 -48 -57 -66 -174 -356 -67 -168
-126 -314 -131 -325 -8 -17 -172 -423 -188 -463 -3 -10 -12 -6 -31 12 -27 26
-101 63 -142 70 -13 3 -116 5 -229 6 l-205 1 -112 281 c-62 155 -111 284 -108
286 2 2 133 5 290 5 200 0 285 4 281 11 -9 23 -109 273 -128 320 -58 146 -143
226 -260 242 -52 8 -419 11 -423 4z"/>
</g>
</svg>
