<svg width="1440" height="367" viewBox="0 0 1440 367" fill="none" xmlns="http://www.w3.org/2000/svg">
<path fill-rule="evenodd" clip-rule="evenodd" d="M1425.94 66.2303C1462.5 66.2303 1494.9 79.1111 1519.51 101.045C1524.4 84.8927 1539.29 73.8494 1556.16 73.8494H1585.21V358.519H1551.18C1535.68 358.519 1522.13 348.05 1518.23 333.053C1493.79 354.459 1461.87 366.999 1425.94 366.999C1340.28 366.999 1276.55 302.353 1276.55 216.184C1276.55 130.348 1340.28 66.2303 1425.94 66.2303ZM383.961 66.2222C471.414 66.2222 531.39 133.603 531.39 215.603C531.381 223.123 530.861 230.653 529.902 238.173H314.354C321.044 277.022 346.602 298.419 383.952 298.419C410.703 298.419 432.674 285.762 444.368 265.396L514.145 290.871C488.444 338.038 440.485 367 383.961 367C299.871 367 236.237 301.914 236.237 216.616C236.237 130.869 299.432 66.2222 383.961 66.2222ZM903.904 66.2222C991.348 66.2222 1051.33 133.603 1051.33 215.603C1051.32 223.123 1050.8 230.653 1049.83 238.173H834.296C840.986 277.022 866.544 298.419 903.895 298.419C930.645 298.419 952.616 285.762 964.301 265.396L1034.08 290.871C1008.38 338.038 960.427 367 903.904 367C819.805 367 756.179 301.914 756.179 216.616C756.179 130.869 819.374 66.2222 903.904 66.2222ZM667.305 0V74.2734H759.018L722.69 119.773C714.431 130.126 701.903 136.15 688.649 136.15H668.597V247.094C668.597 274.604 684.425 290.416 712.476 290.416H747.468V358.952H692.765C630.099 358.952 591.6 320.462 591.6 257.295V136.15H540.108V127.446L658.598 0H667.305ZM1257.15 72.6949V145.301H1223.72C1180.34 145.301 1163.17 164.519 1163.17 211.059V358.951H1086.19V74.2725H1098.08C1120.69 74.2725 1140.99 88.1125 1149.25 109.15C1169.52 83.9802 1195.25 72.6949 1231.84 72.6949H1257.15ZM1644.78 304.697C1652.31 304.697 1658.72 307.377 1664.02 312.665C1669.31 317.954 1672 324.363 1672 331.893C1672 339.422 1669.31 345.76 1664.02 351.048C1658.72 356.337 1652.31 358.945 1644.78 358.945C1637.33 358.945 1630.92 356.337 1625.62 351.048C1620.33 345.76 1617.72 339.422 1617.72 331.893C1617.72 324.363 1620.33 317.954 1625.62 312.665C1630.92 307.377 1637.33 304.697 1644.78 304.697ZM-25.4846 74.2752C-4.00696 74.2752 15.2915 87.425 23.1382 107.414L88.432 273.602L152.578 107.683C160.362 87.5505 179.723 74.2752 201.317 74.2752H245.277L132.132 358.945H79.0339C57.7804 358.945 38.6434 346.082 30.6263 326.398L-72 74.2752H-25.4846ZM1644.85 309.017C1638.6 309.017 1633.23 311.249 1628.82 315.722C1624.43 320.123 1622.19 325.484 1622.19 331.821C1622.19 338.149 1624.35 343.519 1628.76 347.992C1633.15 352.384 1638.51 354.625 1644.85 354.625C1651.19 354.625 1656.49 352.384 1660.89 347.992C1665.29 343.519 1667.52 338.149 1667.52 331.821C1667.52 325.484 1665.29 320.123 1660.89 315.722C1656.49 311.249 1651.12 309.017 1644.85 309.017ZM1646.65 316.986C1652.61 316.986 1656.19 320.563 1656.19 325.412C1656.19 329.58 1653.13 332.637 1648.95 333.533L1656.34 346.647H1651.27L1643.97 333.757H1639.04V346.647H1634.57V316.986H1646.65ZM1645.98 320.939H1639.04V329.956H1645.98C1649.85 329.956 1651.8 328.469 1651.8 325.484C1651.8 322.427 1649.85 320.939 1645.98 320.939ZM1432.22 138.164C1387.49 138.164 1354.6 171.563 1354.6 216.184C1354.6 260.806 1387.49 294.205 1432.22 294.205C1476.95 294.205 1509.76 260.904 1509.76 216.184C1509.76 171.473 1476.95 138.164 1432.22 138.164ZM383.952 131.926C349.678 131.926 325.34 151.915 316.39 185.601H454.394C443.525 150.795 418.514 131.926 383.952 131.926ZM903.895 131.926C869.62 131.926 845.282 151.915 836.332 185.601H974.336C963.458 150.795 938.456 131.926 903.895 131.926Z" fill="#EAF6F9"/>
</svg>
