<svg width="24" height="24" viewBox="0 0 24 24" fill="none" xmlns="http://www.w3.org/2000/svg">
<path opacity="0.1" fill-rule="evenodd" clip-rule="evenodd" d="M0 12C0 5.37258 5.37258 0 12 0C18.6274 0 24 5.37258 24 12C24 18.6274 18.6274 24 12 24C5.37258 24 0 18.6274 0 12Z" fill="white"/>
<path d="M15.85 7.5H8.15C7.71239 7.5 7.29271 7.67779 6.98327 7.99426C6.67384 8.31072 6.5 8.73995 6.5 9.1875V14.8125C6.5 15.2601 6.67384 15.6893 6.98327 16.0057C7.29271 16.3222 7.71239 16.5 8.15 16.5H15.85C16.2876 16.5 16.7073 16.3222 17.0167 16.0057C17.3262 15.6893 17.5 15.2601 17.5 14.8125V9.1875C17.5 8.73995 17.3262 8.31072 17.0167 7.99426C16.7073 7.67779 16.2876 7.5 15.85 7.5ZM8.15 8.625H15.85C15.9959 8.625 16.1358 8.68426 16.2389 8.78975C16.3421 8.89524 16.4 9.03832 16.4 9.1875L12 11.9325L7.6 9.1875C7.6 9.03832 7.65795 8.89524 7.76109 8.78975C7.86424 8.68426 8.00413 8.625 8.15 8.625ZM16.4 14.8125C16.4 14.9617 16.3421 15.1048 16.2389 15.2102C16.1358 15.3157 15.9959 15.375 15.85 15.375H8.15C8.00413 15.375 7.86424 15.3157 7.76109 15.2102C7.65795 15.1048 7.6 14.9617 7.6 14.8125V10.47L11.714 13.0406C11.7976 13.09 11.8925 13.116 11.989 13.116C12.0855 13.116 12.1804 13.09 12.264 13.0406L16.4 10.47V14.8125Z" fill="white"/>
</svg>
