<svg width="255" height="176" viewBox="0 0 255 176" fill="none" xmlns="http://www.w3.org/2000/svg">
<path opacity="0.5" fill-rule="evenodd" clip-rule="evenodd" d="M118.992 58.7656L103.474 20.1089C98.585 7.9655 86.8089 0 73.7244 0H36.0088L59.6069 58.7656H118.992Z" fill="url(#paint0_linear)"/>
<path opacity="0.5" fill-rule="evenodd" clip-rule="evenodd" d="M45.5325 117.533H83.2481L59.6501 58.7671H0.264648L15.7824 97.4239C20.6719 109.567 32.4251 117.533 45.5325 117.533Z" fill="url(#paint1_linear)"/>
<path opacity="0.5" fill-rule="evenodd" clip-rule="evenodd" d="M83.249 117.233L98.7668 155.89C103.656 168.034 115.409 175.999 128.494 175.999H153.745C157.555 175.999 160.631 172.923 160.631 169.112C160.631 168.401 160.517 167.666 160.287 166.978L150.669 137.342C145.779 125.199 134.026 117.233 120.942 117.233H83.249Z" fill="url(#paint2_linear)"/>
<path opacity="0.8" fill-rule="evenodd" clip-rule="evenodd" d="M192.4 155.913L254.999 0H217.352C204.291 0 192.537 7.94254 187.671 20.0859L125.049 175.998H162.696C175.78 175.998 187.51 168.056 192.4 155.913Z" fill="url(#paint3_linear)"/>
<defs>
<linearGradient id="paint0_linear" x1="34.3966" y1="16.941" x2="103.575" y2="65.9206" gradientUnits="userSpaceOnUse">
<stop stop-color="white"/>
<stop offset="1" stop-color="white" stop-opacity="0"/>
</linearGradient>
<linearGradient id="paint1_linear" x1="1.87789" y1="71.1362" x2="71.0596" y2="120.109" gradientUnits="userSpaceOnUse">
<stop stop-color="white" stop-opacity="0"/>
<stop offset="1" stop-color="white"/>
</linearGradient>
<linearGradient id="paint2_linear" x1="82.2552" y1="132.479" x2="130.048" y2="160.068" gradientUnits="userSpaceOnUse">
<stop stop-color="white"/>
<stop offset="1" stop-color="white" stop-opacity="0"/>
</linearGradient>
<linearGradient id="paint3_linear" x1="154.596" y1="-0.0151765" x2="263.707" y2="147.731" gradientUnits="userSpaceOnUse">
<stop stop-color="white"/>
<stop offset="1" stop-color="white" stop-opacity="0"/>
</linearGradient>
</defs>
</svg>
