<svg width="90" height="28" viewBox="0 0 90 28" fill="none" xmlns="http://www.w3.org/2000/svg">
<path d="M9.99984 22.3334C5.39734 22.3334 1.6665 18.6025 1.6665 14C1.6665 9.39752 5.39734 5.66669 9.99984 5.66669C14.6023 5.66669 18.3332 9.39752 18.3332 14C18.3332 18.6025 14.6023 22.3334 9.99984 22.3334ZM15.2957 17.2934V17.2059C15.2957 16.4375 15.2957 16.0867 14.7523 15.7759C14.5777 15.6769 14.3983 15.5865 14.2148 15.505C13.909 15.3659 13.7065 15.275 13.4332 14.875C13.4005 14.8275 13.3683 14.7797 13.3365 14.7317C13.049 14.2942 12.8415 13.9792 12.0515 14.1042C10.4973 14.3509 10.3823 14.6242 10.314 15.0859L10.3032 15.1617C10.2023 15.8367 10.184 16.0634 10.4657 16.3592C11.5198 17.465 12.1515 18.2625 12.3432 18.7292C12.4365 18.9567 12.6765 19.6459 12.5115 20.3275C13.523 19.9246 14.4234 19.2854 15.1373 18.4634C15.229 18.1517 15.2957 17.7634 15.2957 17.2934ZM9.99984 7.19419C8.069 7.19419 6.32484 7.99919 5.0865 9.29085C5.234 9.39335 5.36234 9.53752 5.45067 9.73585C5.62067 10.1167 5.62067 10.5092 5.62067 10.8567C5.62067 11.13 5.62067 11.39 5.70817 11.5775C5.82817 11.8342 6.3465 11.9442 6.804 12.0392C6.96817 12.0742 7.1365 12.1092 7.28984 12.1517C7.7115 12.2684 8.03817 12.6475 8.299 12.9517C8.40734 13.0775 8.56817 13.2634 8.649 13.31C8.69067 13.28 8.82484 13.1342 8.89067 12.895C8.94234 12.7117 8.92734 12.55 8.85317 12.4617C8.3865 11.9117 8.41234 10.8534 8.5565 10.4625C8.78317 9.84669 9.4915 9.89252 10.0098 9.92585C10.2032 9.93835 10.3848 9.95085 10.5215 9.93335C11.0398 9.86835 11.1998 9.07919 11.3123 8.92502C11.5557 8.59169 12.3007 8.08919 12.7623 7.77919C11.8928 7.39251 10.9515 7.19319 9.99984 7.19419Z" fill="#021E98"/>
<path d="M32.456 8.536V9.8H26.952V13.608H31.408V14.824H26.952V18.736H32.456V20H25.392V8.536H32.456ZM34.4649 20V11.896H35.3129C35.5155 11.896 35.6435 11.9947 35.6969 12.192L35.8089 13.072C36.1609 12.6827 36.5529 12.368 36.9849 12.128C37.4222 11.888 37.9262 11.768 38.4969 11.768C38.9395 11.768 39.3289 11.8427 39.6649 11.992C40.0062 12.136 40.2889 12.344 40.5129 12.616C40.7422 12.8827 40.9155 13.2053 41.0329 13.584C41.1502 13.9627 41.2089 14.3813 41.2089 14.84V20H39.7849V14.84C39.7849 14.2267 39.6435 13.752 39.3609 13.416C39.0835 13.0747 38.6569 12.904 38.0809 12.904C37.6595 12.904 37.2649 13.0053 36.8969 13.208C36.5342 13.4107 36.1982 13.6853 35.8889 14.032V20H34.4649ZM46.0835 11.76C46.4355 11.76 46.7635 11.8 47.0675 11.88C47.3768 11.9547 47.6568 12.0667 47.9075 12.216H50.1075V12.744C50.1075 12.92 49.9955 13.032 49.7715 13.08L48.8515 13.208C49.0328 13.5547 49.1235 13.9413 49.1235 14.368C49.1235 14.7627 49.0462 15.1227 48.8915 15.448C48.7422 15.768 48.5315 16.0427 48.2595 16.272C47.9928 16.5013 47.6728 16.6773 47.2995 16.8C46.9315 16.9227 46.5262 16.984 46.0835 16.984C45.7048 16.984 45.3475 16.9387 45.0115 16.848C44.8408 16.9547 44.7102 17.0693 44.6195 17.192C44.5342 17.3147 44.4915 17.4347 44.4915 17.552C44.4915 17.744 44.5688 17.8907 44.7235 17.992C44.8782 18.088 45.0835 18.1573 45.3395 18.2C45.5955 18.2427 45.8862 18.2693 46.2115 18.28C46.5368 18.2907 46.8675 18.3093 47.2035 18.336C47.5448 18.3573 47.8782 18.3973 48.2035 18.456C48.5288 18.5147 48.8195 18.6107 49.0755 18.744C49.3315 18.8773 49.5368 19.0613 49.6915 19.296C49.8462 19.5307 49.9235 19.8347 49.9235 20.208C49.9235 20.5547 49.8355 20.8907 49.6595 21.216C49.4888 21.5413 49.2408 21.8293 48.9155 22.08C48.5902 22.336 48.1928 22.5387 47.7235 22.688C47.2542 22.8427 46.7235 22.92 46.1315 22.92C45.5395 22.92 45.0195 22.8613 44.5715 22.744C44.1288 22.6267 43.7608 22.4693 43.4675 22.272C43.1742 22.0747 42.9528 21.8453 42.8035 21.584C42.6595 21.328 42.5875 21.0587 42.5875 20.776C42.5875 20.376 42.7128 20.0373 42.9635 19.76C43.2195 19.4773 43.5688 19.2533 44.0115 19.088C43.7822 18.9813 43.5982 18.84 43.4595 18.664C43.3262 18.4827 43.2595 18.2427 43.2595 17.944C43.2595 17.8267 43.2808 17.7067 43.3235 17.584C43.3662 17.456 43.4302 17.3307 43.5155 17.208C43.6062 17.0853 43.7155 16.968 43.8435 16.856C43.9715 16.744 44.1208 16.6453 44.2915 16.56C43.8915 16.336 43.5768 16.04 43.3475 15.672C43.1235 15.2987 43.0115 14.864 43.0115 14.368C43.0115 13.9733 43.0862 13.616 43.2355 13.296C43.3902 12.9707 43.6035 12.696 43.8755 12.472C44.1475 12.2427 44.4702 12.0667 44.8435 11.944C45.2222 11.8213 45.6355 11.76 46.0835 11.76ZM48.6115 20.44C48.6115 20.2373 48.5555 20.0747 48.4435 19.952C48.3315 19.8293 48.1795 19.736 47.9875 19.672C47.7955 19.6027 47.5742 19.552 47.3235 19.52C47.0728 19.488 46.8088 19.4667 46.5315 19.456C46.2542 19.44 45.9715 19.424 45.6835 19.408C45.3955 19.392 45.1208 19.3627 44.8595 19.32C44.5555 19.464 44.3075 19.64 44.1155 19.848C43.9288 20.056 43.8355 20.304 43.8355 20.592C43.8355 20.7733 43.8808 20.9413 43.9715 21.096C44.0675 21.256 44.2115 21.392 44.4035 21.504C44.5955 21.6213 44.8355 21.712 45.1235 21.776C45.4168 21.8453 45.7608 21.88 46.1555 21.88C46.5395 21.88 46.8835 21.8453 47.1875 21.776C47.4915 21.7067 47.7475 21.608 47.9555 21.48C48.1688 21.352 48.3315 21.2 48.4435 21.024C48.5555 20.848 48.6115 20.6533 48.6115 20.44ZM46.0835 16.04C46.3715 16.04 46.6248 16 46.8435 15.92C47.0675 15.84 47.2542 15.728 47.4035 15.584C47.5528 15.44 47.6648 15.2693 47.7395 15.072C47.8142 14.8693 47.8515 14.648 47.8515 14.408C47.8515 13.912 47.6995 13.5173 47.3955 13.224C47.0968 12.9307 46.6595 12.784 46.0835 12.784C45.5128 12.784 45.0755 12.9307 44.7715 13.224C44.4728 13.5173 44.3235 13.912 44.3235 14.408C44.3235 14.648 44.3608 14.8693 44.4355 15.072C44.5155 15.2693 44.6302 15.44 44.7795 15.584C44.9288 15.728 45.1128 15.84 45.3315 15.92C45.5502 16 45.8008 16.04 46.0835 16.04ZM53.1114 8.216V20H51.6874V8.216H53.1114ZM57.2051 11.896V20H55.7811V11.896H57.2051ZM57.5251 9.352C57.5251 9.49067 57.4958 9.62133 57.4371 9.744C57.3838 9.86133 57.3091 9.968 57.2131 10.064C57.1225 10.1547 57.0158 10.2267 56.8931 10.28C56.7705 10.3333 56.6398 10.36 56.5011 10.36C56.3625 10.36 56.2318 10.3333 56.1091 10.28C55.9918 10.2267 55.8851 10.1547 55.7891 10.064C55.6985 9.968 55.6265 9.86133 55.5731 9.744C55.5198 9.62133 55.4931 9.49067 55.4931 9.352C55.4931 9.21333 55.5198 9.08267 55.5731 8.96C55.6265 8.832 55.6985 8.72267 55.7891 8.632C55.8851 8.536 55.9918 8.46133 56.1091 8.408C56.2318 8.35467 56.3625 8.328 56.5011 8.328C56.6398 8.328 56.7705 8.35467 56.8931 8.408C57.0158 8.46133 57.1225 8.536 57.2131 8.632C57.3091 8.72267 57.3838 8.832 57.4371 8.96C57.4958 9.08267 57.5251 9.21333 57.5251 9.352ZM64.3549 13.232C64.2909 13.3493 64.1922 13.408 64.0589 13.408C63.9789 13.408 63.8882 13.3787 63.7869 13.32C63.6855 13.2613 63.5602 13.1973 63.4109 13.128C63.2669 13.0533 63.0935 12.9867 62.8909 12.928C62.6882 12.864 62.4482 12.832 62.1709 12.832C61.9309 12.832 61.7149 12.864 61.5229 12.928C61.3309 12.9867 61.1655 13.0693 61.0269 13.176C60.8935 13.2827 60.7895 13.408 60.7149 13.552C60.6455 13.6907 60.6109 13.8427 60.6109 14.008C60.6109 14.216 60.6695 14.3893 60.7869 14.528C60.9095 14.6667 61.0695 14.7867 61.2669 14.888C61.4642 14.9893 61.6882 15.08 61.9389 15.16C62.1895 15.2347 62.4455 15.3173 62.7069 15.408C62.9735 15.4933 63.2322 15.5893 63.4829 15.696C63.7335 15.8027 63.9575 15.936 64.1549 16.096C64.3522 16.256 64.5095 16.4533 64.6269 16.688C64.7495 16.9173 64.8109 17.1947 64.8109 17.52C64.8109 17.8933 64.7442 18.24 64.6109 18.56C64.4775 18.8747 64.2802 19.1493 64.0189 19.384C63.7575 19.6133 63.4375 19.7947 63.0589 19.928C62.6802 20.0613 62.2429 20.128 61.7469 20.128C61.1815 20.128 60.6695 20.0373 60.2109 19.856C59.7522 19.6693 59.3629 19.432 59.0429 19.144L59.3789 18.6C59.4215 18.5307 59.4722 18.4773 59.5309 18.44C59.5895 18.4027 59.6669 18.384 59.7629 18.384C59.8589 18.384 59.9602 18.4213 60.0669 18.496C60.1735 18.5707 60.3015 18.6533 60.4509 18.744C60.6055 18.8347 60.7895 18.9173 61.0029 18.992C61.2215 19.0667 61.4935 19.104 61.8189 19.104C62.0962 19.104 62.3389 19.0693 62.5469 19C62.7549 18.9253 62.9282 18.8267 63.0669 18.704C63.2055 18.5813 63.3069 18.44 63.3709 18.28C63.4402 18.12 63.4749 17.9493 63.4749 17.768C63.4749 17.544 63.4135 17.36 63.2909 17.216C63.1735 17.0667 63.0162 16.9413 62.8189 16.84C62.6215 16.7333 62.3949 16.6427 62.1389 16.568C61.8882 16.488 61.6295 16.4053 61.3629 16.32C61.1015 16.2347 60.8429 16.1387 60.5869 16.032C60.3362 15.92 60.1122 15.7813 59.9149 15.616C59.7175 15.4507 59.5575 15.248 59.4349 15.008C59.3175 14.7627 59.2589 14.4667 59.2589 14.12C59.2589 13.8107 59.3229 13.5147 59.4509 13.232C59.5789 12.944 59.7655 12.6933 60.0109 12.48C60.2562 12.2613 60.5575 12.088 60.9149 11.96C61.2722 11.832 61.6802 11.768 62.1389 11.768C62.6722 11.768 63.1495 11.8533 63.5709 12.024C63.9975 12.1893 64.3655 12.4187 64.6749 12.712L64.3549 13.232ZM66.6524 20V8.216H68.0764V12.984C68.423 12.616 68.807 12.3227 69.2284 12.104C69.6497 11.88 70.135 11.768 70.6844 11.768C71.127 11.768 71.5164 11.8427 71.8524 11.992C72.1937 12.136 72.4764 12.344 72.7004 12.616C72.9297 12.8827 73.103 13.2053 73.2204 13.584C73.3377 13.9627 73.3964 14.3813 73.3964 14.84V20H71.9724V14.84C71.9724 14.2267 71.831 13.752 71.5484 13.416C71.271 13.0747 70.8444 12.904 70.2684 12.904C69.847 12.904 69.4524 13.0053 69.0844 13.208C68.7217 13.4107 68.3857 13.6853 68.0764 14.032V20H66.6524Z" fill="#021E98"/>
<path fill-rule="evenodd" clip-rule="evenodd" d="M83.1255 13.1263C83.2929 12.9579 83.5642 12.9579 83.7316 13.1263L86 15.4077L88.2684 13.1263C88.4358 12.9579 88.7071 12.9579 88.8745 13.1263C89.0418 13.2946 89.0418 13.5675 88.8745 13.7358L86.303 16.3221C86.1357 16.4904 85.8643 16.4904 85.697 16.3221L83.1255 13.7358C82.9582 13.5675 82.9582 13.2946 83.1255 13.1263Z" fill="#021E98" stroke="#021E98" stroke-width="0.25" stroke-linecap="round" stroke-linejoin="round"/>
</svg>
