<svg width="157" height="32" viewBox="0 0 157 32" fill="none" xmlns="http://www.w3.org/2000/svg">
<path fill-rule="evenodd" clip-rule="evenodd" d="M8.28844 21.3328H15.1957L10.8733 10.6662H0L2.84251 17.6824C3.73628 19.8879 5.89199 21.3328 8.28844 21.3328Z" fill="#FFAE00"/>
<path fill-rule="evenodd" clip-rule="evenodd" d="M15.1953 21.3334L18.0378 28.3496C18.931 30.5546 21.0868 32.0001 23.4838 32.0001H30.3904L27.5479 24.9839C26.6541 22.7784 24.4984 21.3334 22.102 21.3334H15.1953Z" fill="#021E98"/>
<path fill-rule="evenodd" clip-rule="evenodd" d="M21.7469 10.6666L18.9038 3.65043C18.0106 1.44548 15.8549 0 13.4584 0H6.55176L10.873 10.6666H21.7469Z" fill="#FF7200"/>
<path fill-rule="evenodd" clip-rule="evenodd" d="M35.1837 28.3489L46.6697 0H39.7625C37.3666 0 35.2109 1.44494 34.3171 3.65043L22.8311 31.9993H29.7383C32.1342 31.9993 34.2899 30.5544 35.1837 28.3489Z" fill="#FF0053"/>
<path fill-rule="evenodd" clip-rule="evenodd" d="M142.055 10.3755C144.275 10.3755 146.243 11.1517 147.738 12.4735C148.035 11.5001 148.939 10.8346 149.964 10.8346H151.728V27.9891H149.661C148.72 27.9891 147.897 27.3582 147.66 26.4545C146.176 27.7444 144.237 28.5001 142.055 28.5001C136.852 28.5001 132.982 24.6045 132.982 19.4119C132.982 14.2392 136.852 10.3755 142.055 10.3755ZM78.7712 10.375C84.0826 10.375 87.7252 14.4354 87.7252 19.3768C87.7246 19.83 87.693 20.2837 87.6347 20.7369H74.5436C74.9499 23.078 76.5021 24.3674 78.7706 24.3674C80.3953 24.3674 81.7297 23.6047 82.4399 22.3774L86.6778 23.9126C85.1168 26.7549 82.2041 28.5002 78.7712 28.5002C73.664 28.5002 69.7992 24.578 69.7992 19.4378C69.7992 14.2706 73.6373 10.375 78.7712 10.375ZM110.35 10.375C115.66 10.375 119.304 14.4354 119.304 19.3768C119.303 19.83 119.271 20.2837 119.213 20.7369H106.122C106.528 23.078 108.081 24.3674 110.349 24.3674C111.974 24.3674 113.308 23.6047 114.018 22.3774L118.256 23.9126C116.695 26.7549 113.782 28.5002 110.35 28.5002C105.242 28.5002 101.378 24.578 101.378 19.4378C101.378 14.2706 105.216 10.375 110.35 10.375ZM95.9799 6.38434V10.8601H101.55L99.3436 13.602C98.842 14.2259 98.0811 14.5889 97.2761 14.5889H96.0583V21.2745C96.0583 22.9323 97.0196 23.8851 98.7233 23.8851H100.848V28.0152H97.5261C93.7201 28.0152 91.382 25.6958 91.382 21.8892V14.5889H88.2546V14.0644L95.451 6.38434H95.9799ZM131.804 10.765V15.1403H129.774C127.139 15.1403 126.096 16.2985 126.096 19.103V28.0152H121.42V10.8601H122.143C123.516 10.8601 124.749 11.6941 125.25 12.9619C126.482 11.4451 128.044 10.765 130.267 10.765H131.804ZM155.346 24.7457C155.803 24.7457 156.193 24.9072 156.515 25.2259C156.836 25.5446 156.999 25.9308 156.999 26.3846C156.999 26.8383 156.836 27.2202 156.515 27.5389C156.193 27.8576 155.803 28.0148 155.346 28.0148C154.894 28.0148 154.504 27.8576 154.182 27.5389C153.861 27.2202 153.703 26.8383 153.703 26.3846C153.703 25.9308 153.861 25.5446 154.182 25.2259C154.504 24.9072 154.894 24.7457 155.346 24.7457ZM53.9037 10.8602C55.2081 10.8602 56.3802 11.6527 56.8568 12.8572L60.8224 22.8719L64.7182 12.8734C65.191 11.6602 66.3669 10.8602 67.6784 10.8602H70.3482L63.4764 28.0148H60.2516C58.9607 28.0148 57.7985 27.2397 57.3116 26.0535L51.0786 10.8602H53.9037ZM155.351 25.0061C154.971 25.0061 154.645 25.1406 154.377 25.4101C154.11 25.6753 153.974 25.9984 153.974 26.3803C153.974 26.7616 154.106 27.0852 154.373 27.3547C154.64 27.6194 154.966 27.7544 155.351 27.7544C155.735 27.7544 156.057 27.6194 156.325 27.3547C156.592 27.0852 156.728 26.7616 156.728 26.3803C156.728 25.9984 156.592 25.6753 156.325 25.4101C156.057 25.1406 155.731 25.0061 155.351 25.0061ZM155.46 25.4863C155.822 25.4863 156.039 25.7018 156.039 25.994C156.039 26.2452 155.853 26.4294 155.6 26.4834L156.048 27.2737H155.74L155.297 26.4969H154.998V27.2737H154.726V25.4863H155.46ZM155.419 25.7245H154.998V26.2679H155.419C155.654 26.2679 155.772 26.1782 155.772 25.9984C155.772 25.8142 155.654 25.7245 155.419 25.7245ZM142.437 14.7103C139.72 14.7103 137.722 16.7229 137.722 19.4119C137.722 22.1008 139.72 24.1135 142.437 24.1135C145.153 24.1135 147.146 22.1067 147.146 19.4119C147.146 16.7175 145.153 14.7103 142.437 14.7103ZM78.7706 14.3344C76.689 14.3344 75.2108 15.5389 74.6672 17.5689H83.0488C82.3887 15.4714 80.8697 14.3344 78.7706 14.3344ZM110.349 14.3344C108.267 14.3344 106.789 15.5389 106.246 17.5689H114.627C113.967 15.4714 112.448 14.3344 110.349 14.3344Z" fill="#021E98"/>
</svg>
