<svg width="16" height="18" viewBox="0 0 16 18" fill="none" xmlns="http://www.w3.org/2000/svg">
<path d="M8.88603 16.2H2.66581C2.43014 16.2 2.20412 16.1052 2.03747 15.9364C1.87083 15.7676 1.77721 15.5387 1.77721 15.3V2.7C1.77721 2.46131 1.87083 2.23239 2.03747 2.0636C2.20412 1.89482 2.43014 1.8 2.66581 1.8H7.10882V4.5C7.10882 5.21608 7.38968 5.90284 7.88962 6.40919C8.38955 6.91554 9.06761 7.2 9.77463 7.2H12.4404V9C12.4404 9.23869 12.5341 9.46761 12.7007 9.6364C12.8673 9.80518 13.0934 9.9 13.329 9.9C13.5647 9.9 13.7907 9.80518 13.9574 9.6364C14.124 9.46761 14.2176 9.23869 14.2176 9V6.3C14.2176 6.3 14.2176 6.3 14.2176 6.246C14.2084 6.16332 14.1905 6.08187 14.1643 6.003V5.922C14.1216 5.82946 14.0646 5.7444 13.9955 5.67L8.66388 0.27C8.59042 0.199995 8.50643 0.142273 8.41507 0.0989999C8.38854 0.0951841 8.36162 0.0951841 8.33509 0.0989999C8.24482 0.0465671 8.14513 0.0129098 8.04185 0H2.66581C1.95879 0 1.28073 0.284464 0.780797 0.790812C0.280861 1.29716 0 1.98392 0 2.7V15.3C0 16.0161 0.280861 16.7028 0.780797 17.2092C1.28073 17.7155 1.95879 18 2.66581 18H8.88603C9.1217 18 9.34772 17.9052 9.51436 17.7364C9.68101 17.5676 9.77463 17.3387 9.77463 17.1C9.77463 16.8613 9.68101 16.6324 9.51436 16.4636C9.34772 16.2948 9.1217 16.2 8.88603 16.2ZM8.88603 3.069L11.1875 5.4H9.77463C9.53896 5.4 9.31294 5.30518 9.14629 5.1364C8.97965 4.96761 8.88603 4.73869 8.88603 4.5V3.069ZM4.44301 5.4C4.20734 5.4 3.98132 5.49482 3.81468 5.6636C3.64803 5.83239 3.55441 6.06131 3.55441 6.3C3.55441 6.53869 3.64803 6.76761 3.81468 6.9364C3.98132 7.10518 4.20734 7.2 4.44301 7.2H5.33162C5.56729 7.2 5.79331 7.10518 5.95995 6.9364C6.1266 6.76761 6.22022 6.53869 6.22022 6.3C6.22022 6.06131 6.1266 5.83239 5.95995 5.6636C5.79331 5.49482 5.56729 5.4 5.33162 5.4H4.44301ZM9.77463 9H4.44301C4.20734 9 3.98132 9.09482 3.81468 9.2636C3.64803 9.43239 3.55441 9.6613 3.55441 9.9C3.55441 10.1387 3.64803 10.3676 3.81468 10.5364C3.98132 10.7052 4.20734 10.8 4.44301 10.8H9.77463C10.0103 10.8 10.2363 10.7052 10.403 10.5364C10.5696 10.3676 10.6632 10.1387 10.6632 9.9C10.6632 9.6613 10.5696 9.43239 10.403 9.2636C10.2363 9.09482 10.0103 9 9.77463 9ZM15.7372 13.761L13.9599 11.961C13.8754 11.8791 13.7758 11.8148 13.6667 11.772C13.4504 11.682 13.2077 11.682 12.9914 11.772C12.8823 11.8148 12.7826 11.8791 12.6981 11.961L10.9209 13.761C10.7536 13.9305 10.6596 14.1603 10.6596 14.4C10.6596 14.6397 10.7536 14.8695 10.9209 15.039C11.0883 15.2085 11.3152 15.3037 11.5518 15.3037C11.7885 15.3037 12.0154 15.2085 12.1827 15.039L12.4404 14.769V17.1C12.4404 17.3387 12.5341 17.5676 12.7007 17.7364C12.8673 17.9052 13.0934 18 13.329 18C13.5647 18 13.7907 17.9052 13.9574 17.7364C14.124 17.5676 14.2176 17.3387 14.2176 17.1V14.769L14.4753 15.039C14.5579 15.1234 14.6562 15.1903 14.7645 15.236C14.8728 15.2817 14.9889 15.3052 15.1062 15.3052C15.2236 15.3052 15.3397 15.2817 15.448 15.236C15.5563 15.1903 15.6545 15.1234 15.7372 15.039C15.8204 14.9553 15.8865 14.8558 15.9317 14.7461C15.9768 14.6364 16 14.5188 16 14.4C16 14.2812 15.9768 14.1636 15.9317 14.0539C15.8865 13.9442 15.8204 13.8447 15.7372 13.761ZM7.99742 14.4C8.2331 14.4 8.45912 14.3052 8.62576 14.1364C8.79241 13.9676 8.88603 13.7387 8.88603 13.5C8.88603 13.2613 8.79241 13.0324 8.62576 12.8636C8.45912 12.6948 8.2331 12.6 7.99742 12.6H4.44301C4.20734 12.6 3.98132 12.6948 3.81468 12.8636C3.64803 13.0324 3.55441 13.2613 3.55441 13.5C3.55441 13.7387 3.64803 13.9676 3.81468 14.1364C3.98132 14.3052 4.20734 14.4 4.44301 14.4H7.99742Z" fill="#FF0053"/>
</svg>
