<svg width="529" height="392" viewBox="0 0 529 392" fill="none" xmlns="http://www.w3.org/2000/svg">
<path opacity="0.5" fill-rule="evenodd" clip-rule="evenodd" d="M264.56 130.887L229.981 44.788C219.086 17.7414 192.845 0 163.689 0H79.6465L132.23 130.887H264.56Z" fill="url(#paint0_linear)"/>
<path opacity="0.5" fill-rule="evenodd" clip-rule="evenodd" d="M100.871 261.78H184.913L132.329 130.893H0L34.5785 216.992C45.4738 244.039 71.6634 261.78 100.871 261.78Z" fill="url(#paint1_linear)"/>
<path opacity="0.5" fill-rule="evenodd" clip-rule="evenodd" d="M184.916 261.111L219.495 347.211C230.39 374.257 256.579 391.999 285.736 391.999H342.003C350.494 391.999 357.348 385.148 357.348 376.66C357.348 375.075 357.092 373.439 356.581 371.905L335.148 305.899C324.253 278.853 298.063 261.111 268.907 261.111H184.916Z" fill="url(#paint2_linear)"/>
<path opacity="0.8" fill-rule="evenodd" clip-rule="evenodd" d="M428.141 347.261L567.632 0H483.743C454.638 0 428.448 17.6902 417.604 44.7369L278.062 391.997H361.951C391.108 391.997 417.246 374.307 428.141 347.261Z" fill="url(#paint3_linear)"/>
<defs>
<linearGradient id="paint0_linear" x1="76.0539" y1="37.7324" x2="230.156" y2="146.891" gradientUnits="userSpaceOnUse">
<stop stop-color="white"/>
<stop offset="1" stop-color="white" stop-opacity="0"/>
</linearGradient>
<linearGradient id="paint1_linear" x1="3.59481" y1="158.442" x2="157.705" y2="267.584" gradientUnits="userSpaceOnUse">
<stop stop-color="white" stop-opacity="0"/>
<stop offset="1" stop-color="white"/>
</linearGradient>
<linearGradient id="paint2_linear" x1="182.701" y1="295.068" x2="289.173" y2="356.559" gradientUnits="userSpaceOnUse">
<stop stop-color="white"/>
<stop offset="1" stop-color="white" stop-opacity="0"/>
</linearGradient>
<linearGradient id="paint3_linear" x1="343.902" y1="-0.0338022" x2="586.891" y2="329.146" gradientUnits="userSpaceOnUse">
<stop stop-color="white"/>
<stop offset="1" stop-color="white" stop-opacity="0"/>
</linearGradient>
</defs>
</svg>
