<svg width="24" height="24" viewBox="0 0 24 24" fill="none" xmlns="http://www.w3.org/2000/svg">
<path opacity="0.1" fill-rule="evenodd" clip-rule="evenodd" d="M0 12C0 5.37258 5.37258 0 12 0C18.6274 0 24 5.37258 24 12C24 18.6274 18.6274 24 12 24C5.37258 24 0 18.6274 0 12Z" fill="white"/>
<path d="M16.1366 12.5675C16.0152 12.5675 15.8882 12.5288 15.7668 12.5011C15.5208 12.4467 15.2792 12.3746 15.0437 12.2852C14.7876 12.1918 14.5061 12.1966 14.2534 12.2988C14.0007 12.401 13.7946 12.5933 13.6747 12.8388L13.5533 13.0879C13.0157 12.7879 12.5217 12.4154 12.085 11.9807C11.6516 11.5428 11.2802 11.0474 10.9811 10.5082L11.2129 10.3532C11.4576 10.233 11.6494 10.0263 11.7513 9.77283C11.8532 9.51937 11.8581 9.23707 11.7649 8.98026C11.6773 8.74355 11.6053 8.50129 11.5496 8.25505C11.522 8.13326 11.4999 8.00594 11.4834 7.87861C11.4164 7.48868 11.2127 7.13555 10.9091 6.88284C10.6055 6.63012 10.2219 6.49442 9.82744 6.50018H8.17149C7.93361 6.49794 7.69803 6.54713 7.4808 6.6444C7.26358 6.74168 7.0698 6.88475 6.91266 7.06389C6.75552 7.24302 6.63871 7.45401 6.57019 7.68248C6.50166 7.91096 6.48302 8.15157 6.51555 8.38792C6.80961 10.7071 7.86571 12.862 9.51703 14.5121C11.1684 16.1622 13.3208 17.2135 15.6343 17.5H15.844C16.2511 17.5006 16.6441 17.3508 16.948 17.0793C17.1226 16.9226 17.2621 16.7306 17.3573 16.5159C17.4524 16.3012 17.5011 16.0687 17.5 15.8337V14.1729C17.4932 13.7884 17.3536 13.4181 17.105 13.1253C16.8563 12.8326 16.514 12.6354 16.1366 12.5675ZM16.4126 15.8891C16.4125 15.9677 16.3957 16.0453 16.3633 16.1169C16.331 16.1885 16.2838 16.2524 16.2249 16.3042C16.1632 16.3577 16.0911 16.3975 16.0132 16.4214C15.9352 16.4452 15.8532 16.4525 15.7723 16.4426C13.7051 16.1768 11.7849 15.2283 10.3147 13.7468C8.84447 12.2653 7.90787 10.3351 7.65263 8.26059C7.64385 8.1795 7.65154 8.09746 7.67526 8.01944C7.69898 7.94142 7.73823 7.86903 7.79063 7.80665C7.84235 7.7476 7.90602 7.70027 7.9774 7.66782C8.04878 7.63536 8.12624 7.61853 8.20461 7.61843H9.86056C9.98892 7.61556 10.1143 7.65766 10.215 7.73749C10.3158 7.81731 10.3856 7.92986 10.4125 8.05576C10.4346 8.20708 10.4622 8.35655 10.4953 8.50417C10.5591 8.79599 10.644 9.08277 10.7492 9.36223L9.97647 9.72207C9.9104 9.75247 9.85096 9.79566 9.80158 9.84917C9.7522 9.90267 9.71384 9.96543 9.68871 10.0338C9.66358 10.1023 9.65217 10.175 9.65514 10.2478C9.6581 10.3207 9.67539 10.3922 9.706 10.4583C10.5004 12.1649 11.8682 13.5367 13.5699 14.3335C13.7043 14.3888 13.855 14.3888 13.9894 14.3335C14.0582 14.3088 14.1215 14.2706 14.1755 14.2212C14.2295 14.1718 14.2732 14.1121 14.304 14.0456L14.6462 13.2706C14.9316 13.3729 15.2228 13.458 15.5184 13.5252C15.6656 13.5584 15.8146 13.5861 15.9655 13.6083C16.091 13.6353 16.2032 13.7053 16.2828 13.8064C16.3624 13.9074 16.4044 14.0331 16.4015 14.1619L16.4126 15.8891Z" fill="white"/>
</svg>
