<svg width="491" height="340" viewBox="0 0 491 340" fill="none" xmlns="http://www.w3.org/2000/svg">
<g opacity="0.4">
<g opacity="0.5">
<path opacity="0.5" fill-rule="evenodd" clip-rule="evenodd" d="M228.841 113.525L198.931 38.847C189.506 15.388 166.808 0 141.588 0H68.8914L114.376 113.525H228.841Z" fill="url(#paint0_linear)"/>
<path opacity="0.5" fill-rule="evenodd" clip-rule="evenodd" d="M87.2534 227.053H159.95L114.465 113.527H0L29.9104 188.206C39.3348 211.665 61.9888 227.053 87.2534 227.053Z" fill="url(#paint1_linear)"/>
<path opacity="0.5" fill-rule="evenodd" clip-rule="evenodd" d="M159.949 226.475L189.86 301.153C199.284 324.612 221.938 340 247.158 340H295.829C303.174 340 309.103 334.058 309.103 326.696C309.103 325.322 308.882 323.903 308.439 322.572L289.9 265.322C280.476 241.863 257.822 226.475 232.601 226.475H159.949Z" fill="url(#paint2_linear)"/>
<path opacity="0.8" fill-rule="evenodd" clip-rule="evenodd" d="M370.341 301.197L491 0H418.436C393.26 0 370.606 15.3437 361.226 38.8027L240.522 340H313.086C338.306 340 360.916 324.656 370.341 301.197Z" fill="url(#paint3_linear)"/>
</g>
</g>
<defs>
<linearGradient id="paint0_linear" x1="65.7838" y1="32.7273" x2="199.324" y2="127.064" gradientUnits="userSpaceOnUse">
<stop stop-color="white"/>
<stop offset="1" stop-color="white" stop-opacity="0"/>
</linearGradient>
<linearGradient id="paint1_linear" x1="3.10951" y1="137.422" x2="136.657" y2="231.745" gradientUnits="userSpaceOnUse">
<stop stop-color="white" stop-opacity="0"/>
<stop offset="1" stop-color="white"/>
</linearGradient>
<linearGradient id="paint2_linear" x1="158.034" y1="255.927" x2="250.257" y2="309.044" gradientUnits="userSpaceOnUse">
<stop stop-color="white"/>
<stop offset="1" stop-color="white" stop-opacity="0"/>
</linearGradient>
<linearGradient id="paint3_linear" x1="297.473" y1="-0.0293184" x2="508.398" y2="284.938" gradientUnits="userSpaceOnUse">
<stop stop-color="white"/>
<stop offset="1" stop-color="white" stop-opacity="0"/>
</linearGradient>
</defs>
</svg>
